<svg width="225" height="225" viewBox="0 0 225 225" fill="none" xmlns="http://www.w3.org/2000/svg">
<path d="M0 112.5C0 50.4934 50.3171 0.227043 112.386 0.227043C174.456 0.227043 224.773 50.4934 224.773 112.5C224.773 174.507 174.456 224.773 112.386 224.773C50.3171 224.773 0 174.507 0 112.5Z" fill="#F2DA3A"/>
<path d="M171.243 96.389L166.004 91.1556L168.308 88.8547C169.361 87.8019 169.933 86.6891 170.024 85.5161C170.084 84.313 169.587 83.2452 168.533 82.3128L161.037 75.7259C159.11 74.0416 158.191 72.0715 158.282 69.8157C158.372 67.4997 159.456 65.3041 161.533 63.2288L161.849 63.5446C159.772 65.6199 157.589 66.7177 155.301 66.838C153.043 66.9283 151.086 66.026 149.43 64.1311L142.836 56.6418C141.783 55.4688 140.684 54.9425 139.54 55.0628C138.426 55.153 137.327 55.7395 136.243 56.8223L133.94 59.1232L128.746 53.9349L131.862 50.8219C133.548 49.1375 135.34 47.9796 137.236 47.3479C139.163 46.6862 141.045 46.611 142.882 47.1224C144.718 47.6337 146.404 48.7465 147.94 50.4609L154.578 57.9953C155.692 59.2886 156.867 59.9503 158.101 59.9804C159.335 60.0105 160.63 59.3488 161.985 57.9953L167.359 52.6265L172.553 57.8148L167.179 63.1836C165.824 64.5371 165.161 65.8305 165.191 67.0636C165.222 68.2968 165.899 69.4849 167.224 70.6278L174.54 77.0343C176.286 78.5983 177.415 80.2976 177.927 82.1324C178.469 83.9972 178.424 85.9071 177.792 87.8621C177.189 89.787 176.045 91.5917 174.359 93.276L171.243 96.389Z" fill="black"/>
<path d="M93.0772 174.476C91.3912 176.16 89.5696 177.318 87.6126 177.95C85.6858 178.552 83.789 178.582 81.9223 178.04C80.0857 177.529 78.3846 176.401 76.819 174.656L70.4061 167.348C69.262 166.024 68.0727 165.348 66.8383 165.317C65.634 165.257 64.3394 165.919 62.9544 167.303L57.5802 172.671L52.3866 167.483L57.7608 162.114C59.1458 160.731 59.8082 159.437 59.748 158.234C59.7179 157.001 59.0555 155.828 57.7608 154.715L50.2189 148.083C48.5027 146.549 47.3887 144.865 46.8769 143.03C46.3651 141.195 46.4253 139.331 47.0576 137.436C47.7199 135.511 48.8941 133.706 50.5802 132.022L53.6963 128.909L58.8899 134.097L56.5866 136.398C55.5028 137.481 54.9006 138.594 54.7802 139.737C54.6899 140.85 55.2318 141.932 56.406 142.985L63.9028 149.572C65.7996 151.226 66.7028 153.181 66.6125 155.437C66.5222 157.693 65.4233 159.873 63.3157 161.979L62.9996 161.663C65.077 159.588 67.2598 158.52 69.548 158.46C71.8362 158.34 73.8233 159.242 75.5093 161.167L82.1029 168.656C83.0664 169.679 84.1352 170.175 85.3094 170.145C86.4836 170.055 87.5976 169.483 88.6514 168.43L90.9546 166.13L96.1933 171.363L93.0772 174.476Z" fill="black"/>
<path d="M183.834 141.626L141.408 184.009L128.712 171.326L133.903 166.141L140.931 173.162L172.976 141.149L165.948 134.128L171.139 128.943L183.834 141.626Z" fill="black"/>
<path d="M83.393 41.2857L40.9666 83.6693L53.6624 96.3523L58.8528 91.1671L51.8248 84.1461L83.8703 52.133L90.8983 59.1539L96.0888 53.9687L83.393 41.2857Z" fill="black"/>
<path fill-rule="evenodd" clip-rule="evenodd" d="M112.5 0C174.632 0 225 50.3171 225 112.386C225 174.456 174.632 224.773 112.5 224.773C50.368 224.773 0 174.456 0 112.386C0 50.3171 50.368 0 112.5 0ZM112.5 9.76287C55.3887 9.76287 9.09091 56.014 9.09091 113.068C9.09091 170.121 55.3887 216.372 112.5 216.372C169.611 216.372 215.909 170.121 215.909 113.068C215.909 56.014 169.611 9.76287 112.5 9.76287Z" fill="black"/>
</svg>
